<?xml version="1.0" encoding="UTF-8" standalone="no"?>
<svg
   xmlns:dc="http://purl.org/dc/elements/1.1/"
   xmlns:cc="http://creativecommons.org/ns#"
   xmlns:rdf="http://www.w3.org/1999/02/22-rdf-syntax-ns#"
   xmlns:svg="http://www.w3.org/2000/svg"
   xmlns="http://www.w3.org/2000/svg"
   id="svg8"
   version="1.1"
   viewBox="0 0 33.508472 46.523735"
   height="46.523735mm"
   width="33.508472mm">
  <defs
     id="defs2" />
  <metadata
     id="metadata5">
    <rdf:RDF>
      <cc:Work
         rdf:about="">
        <dc:format>image/svg+xml</dc:format>
        <dc:type
           rdf:resource="http://purl.org/dc/dcmitype/StillImage" />
        <dc:title></dc:title>
      </cc:Work>
    </rdf:RDF>
  </metadata>
  <g
     transform="translate(-35.209816,-86.242591)"
     style="display:inline;opacity:1"
     id="layer1">
    <path
       id="path846-7"
       d="M 44.60474,96.1529 C 44.60474,94.937066 44.60474,93.721231 44.60474,92.505397 M 51.182113,91.664432 C 48.825328,91.525997 46.479683,92.290767 44.189249,92.386771 42.728566,91.969727 41.267883,91.552684 39.8072,91.135641 43.598838,90.005314 47.390475,88.874988 51.182113,87.744661 M 57.759486,92.505397 C 57.759486,93.721231 57.759486,94.937066 57.759486,96.1529 M 51.182113,87.744661 C 55.196475,88.830443 59.210838,89.916224 63.2252,91.002006 61.403295,91.503137 59.581391,92.004268 57.759486,92.505399 55.612348,91.957984 53.397963,91.674222 51.182113,91.664432"
       style="fill:none;fill-opacity:1;stroke:#6abfea;stroke-width:1;stroke-linecap:round;stroke-linejoin:round;stroke-miterlimit:4;stroke-dasharray:none;stroke-opacity:1" />
    <path
       id="path867"
       d="M 39.849305,91.135644 C 39.849305,91.894621 39.849305,92.653599 39.849305,93.412576"
       style="fill:none;stroke:#6abfea;stroke-width:1;stroke-linecap:butt;stroke-linejoin:miter;stroke-miterlimit:4;stroke-dasharray:none;stroke-opacity:1" />
    <path
       id="path871"
       d="M 38.792902,96.271021 C 38.230992,94.929613 39.506569,92.19107 40.80289,94.148068 41.096017,94.887754 40.91893,95.675521 40.949289,96.443304"
       style="fill:none;stroke:#6abfea;stroke-width:1;stroke-linecap:butt;stroke-linejoin:miter;stroke-miterlimit:4;stroke-dasharray:none;stroke-opacity:1" />
    <path
       id="path889"
       d="M 37.952272,100.72394 C 36.796425,99.247333 36.566524,95.706282 36.782967,95.679227 38.965632,96.038703 39.533982,97.142749 44.049357,96.631375 47.310027,96.262098 49.102915,97.393371 51.182113,98.38533 53.644221,96.994163 55.59192,96.270641 57.843008,96.587213 60.755067,96.996737 63.741605,96.739163 65.815103,95.822171 65.936863,97.094986 65.993102,98.358441 65.248138,99.507438"
       style="fill:none;stroke:#0b0e3a;stroke-width:1;stroke-linecap:round;stroke-linejoin:round;stroke-miterlimit:4;stroke-dasharray:none;stroke-opacity:1;paint-order:markers fill stroke" />
    <path
       id="path906"
       d="M 50.491533,106.62057 C 50.690323,110.79153 45.856693,114.10939 42.022876,112.47363 38.071512,111.16196 36.616712,105.52145 39.511893,102.49157 42.140061,99.315354 47.880604,99.854214 49.716154,103.61075 50.221143,104.52784 50.494245,105.57303 50.491533,106.62057 Z"
       style="fill:none;fill-opacity:1;stroke:#0b0e3a;stroke-width:1.24527812;stroke-linecap:round;stroke-linejoin:round;stroke-miterlimit:4;stroke-dasharray:none;stroke-opacity:1;paint-order:markers fill stroke" />
    <path
       id="path906-2"
       d="M 67.095647,106.53706 C 67.294442,110.70802 62.460809,114.02589 58.62699,112.39012 54.675625,111.07845 53.220827,105.43795 56.116007,102.40807 58.744174,99.231848 64.484714,99.770714 66.320269,103.52725 66.825257,104.44434 67.098359,105.48952 67.095647,106.53706 Z"
       style="fill:none;fill-opacity:1;stroke:#0b0e3a;stroke-width:1.24527812;stroke-linecap:round;stroke-linejoin:round;stroke-miterlimit:4;stroke-dasharray:none;stroke-opacity:1;paint-order:markers fill stroke" />
    <path
       id="path923"
       d="M 40.792011,104.36549 C 42.249677,102.3819 45.60969,102.80999 46.579146,105.05323 47.787387,107.30981 45.794057,110.35483 43.223183,110.02729 41.428022,109.91556 39.85899,108.28992 39.923384,106.47024"
       style="fill:none;stroke:#6abfea;stroke-width:1;stroke-linecap:round;stroke-linejoin:round;stroke-miterlimit:4;stroke-dasharray:none;stroke-opacity:1" />
    <path
       id="path925"
       d="M 43.264253,105.33434 C 44.115224,105.23309 44.889162,105.95994 44.901281,106.80432"
       style="fill:none;stroke:#6abfea;stroke-width:1;stroke-linecap:round;stroke-linejoin:round;stroke-miterlimit:4;stroke-dasharray:none;stroke-opacity:1" />
    <path
       id="path923-6"
       d="M 57.499101,104.3199 C 58.956767,102.33631 62.31678,102.7644 63.286236,105.00764 64.494477,107.26422 62.501147,110.30924 59.930273,109.9817 58.135112,109.86997 56.56608,108.24433 56.630474,106.42465"
       style="fill:none;stroke:#6abfea;stroke-width:1;stroke-linecap:round;stroke-linejoin:round;stroke-miterlimit:4;stroke-dasharray:none;stroke-opacity:1" />
    <path
       id="path925-9"
       d="M 59.971342,105.28875 C 60.822313,105.1875 61.596252,105.91435 61.608371,106.75873"
       style="fill:none;stroke:#6abfea;stroke-width:1;stroke-linecap:round;stroke-linejoin:round;stroke-miterlimit:4;stroke-dasharray:none;stroke-opacity:1" />
    <path
       id="path945"
       d="M 37.685003,112.95152 C 37.394603,118.12911 38.749697,123.9033 42.998761,127.24958 47.237617,130.39909 53.099919,130.49633 57.924129,128.76002 62.428627,126.93976 65.09636,122.26467 65.639821,117.5937 65.998029,115.57453 65.869236,113.29196 65.615625,111.41461 65.595871,111.34427 65.383871,110.8098 65.280582,111.08063"
       style="fill:none;stroke:#0b0e3a;stroke-width:1;stroke-linecap:round;stroke-linejoin:round;stroke-miterlimit:4;stroke-dasharray:none;stroke-opacity:1" />
    <path
       id="path947"
       d="M 39.722932,123.27481 C 40.849403,119.35991 43.690209,115.61372 47.839514,114.69833 48.727648,114.45215 49.636071,114.28709 50.547349,114.15423"
       style="fill:none;stroke:#0b0e3a;stroke-width:1;stroke-linecap:round;stroke-linejoin:round;stroke-miterlimit:4;stroke-dasharray:none;stroke-opacity:1" />
    <path
       id="path949"
       d="M 53.620947,114.0206 C 57.773336,114.3097 61.9624,116.56217 63.77719,120.43507"
       style="fill:none;stroke:#0b0e3a;stroke-width:1;stroke-linecap:round;stroke-linejoin:bevel;stroke-miterlimit:4;stroke-dasharray:none;stroke-opacity:1" />
    <path
       id="path951"
       d="M 52.084149,110.04496 C 52.797079,111.14081 55.266621,112.05299 53.774527,113.3794 53.222204,114.2279 52.669881,115.07639 52.117558,115.92489 51.628423,114.45802 48.898527,112.78699 50.68516,111.52747 51.151489,111.0333 51.617818,110.53913 52.084149,110.04496 Z"
       style="fill:none;stroke:#6abfea;stroke-width:1;stroke-linecap:round;stroke-linejoin:round;stroke-miterlimit:4;stroke-dasharray:none;stroke-opacity:1" />
    <path
       id="path953"
       d="M 43.999245,127.68475 C 44.277651,128.75383 44.556057,129.82291 44.834463,130.89199"
       style="fill:none;stroke:#6abfea;stroke-width:1;stroke-linecap:round;stroke-linejoin:round;stroke-miterlimit:4;stroke-dasharray:none;stroke-opacity:1" />
    <path
       id="path955"
       d="M 41.760864,128.01884 C 42.061542,128.8986 42.36222,129.77836 42.662898,130.65812"
       style="fill:none;stroke:#6abfea;stroke-width:1;stroke-linecap:round;stroke-linejoin:round;stroke-miterlimit:4;stroke-dasharray:none;stroke-opacity:1" />
    <path
       id="path957"
       d="M 39.956795,128.2527 C 40.2352,129.22155 40.513606,130.19041 40.792011,131.15926"
       style="fill:none;stroke:#6abfea;stroke-width:1;stroke-linecap:round;stroke-linejoin:round;stroke-miterlimit:4;stroke-dasharray:none;stroke-opacity:1" />
    <path
       id="path959"
       d="M 59.634513,127.8852 C 59.311562,129.00996 58.988611,130.13472 58.66566,131.25948"
       style="fill:none;stroke:#6abfea;stroke-width:1;stroke-linecap:round;stroke-linejoin:round;stroke-miterlimit:4;stroke-dasharray:none;stroke-opacity:1" />
    <path
       id="path961"
       d="M 61.471992,128.28611 C 61.226996,129.2661 60.981996,130.24608 60.737,131.22607"
       style="fill:none;stroke:#6abfea;stroke-width:1;stroke-linecap:round;stroke-linejoin:round;stroke-miterlimit:4;stroke-dasharray:none;stroke-opacity:1" />
    <path
       id="path963"
       d="M 63.844008,128.31952 C 63.599012,129.27724 63.354012,130.23495 63.109016,131.19267"
       style="fill:none;stroke:#6abfea;stroke-width:1;stroke-linecap:round;stroke-linejoin:round;stroke-miterlimit:4;stroke-dasharray:none;stroke-opacity:1" />
  </g>
</svg>
