<?xml version="1.0" encoding="UTF-8" standalone="no"?>
<!-- Generator: Adobe Illustrator 16.0.4, SVG Export Plug-In . SVG Version: 6.00 Build 0)  -->

<svg
   xmlns:dc="http://purl.org/dc/elements/1.1/"
   xmlns:cc="http://creativecommons.org/ns#"
   xmlns:rdf="http://www.w3.org/1999/02/22-rdf-syntax-ns#"
   xmlns:svg="http://www.w3.org/2000/svg"
   xmlns="http://www.w3.org/2000/svg"
   xmlns:sodipodi="http://sodipodi.sourceforge.net/DTD/sodipodi-0.dtd"
   xmlns:inkscape="http://www.inkscape.org/namespaces/inkscape"
   version="1.2"
   id="Layer_1"
   x="0px"
   y="0px"
   width="174.59801"
   height="225.077"
   viewBox="0 0 174.59801 225.077"
   xml:space="preserve"
   sodipodi:docname="https _www.utexas.edu_.svg"
   inkscape:version="0.92.3 (2405546, 2018-03-11)"><metadata
   id="metadata111"><rdf:RDF><cc:Work
       rdf:about=""><dc:format>image/svg+xml</dc:format><dc:type
         rdf:resource="http://purl.org/dc/dcmitype/StillImage" /><dc:title></dc:title></cc:Work></rdf:RDF></metadata><defs
   id="defs109">
	</defs><sodipodi:namedview
   pagecolor="#ffffff"
   bordercolor="#666666"
   borderopacity="1"
   objecttolerance="10"
   gridtolerance="10"
   guidetolerance="10"
   inkscape:pageopacity="0"
   inkscape:pageshadow="2"
   inkscape:window-width="1920"
   inkscape:window-height="1017"
   id="namedview107"
   showgrid="false"
   fit-margin-top="0"
   fit-margin-left="0"
   fit-margin-right="0"
   fit-margin-bottom="0"
   inkscape:zoom="0.5"
   inkscape:cx="716.00387"
   inkscape:cy="20.049057"
   inkscape:window-x="-8"
   inkscape:window-y="-8"
   inkscape:window-maximized="1"
   inkscape:current-layer="Layer_1" />
<g
   id="g36"
   transform="translate(-8,-5)">
			<polygon
   points="95.217,80.18 95.41,80.18 95.41,80.113 95.217,80.113 "
   id="polygon2"
   style="fill:#bf5700" />
			<path
   d="M 117.929,61.244 C 113.179,60.521 108.694,59.828 104.639,59.828 102.464,59.828 100.559,60.042 98.861,60.448 L 97.913,33.949 V 29.554 C 99.784,28.769 102.049,28.404 104.939,28.404 108.636,28.404 112.88,29.024 117.357,29.68 121.3,30.259 125.355,30.829 129.507,31.101 L 130.649,62.775 C 126.386,62.541 122.097,61.896 117.929,61.244 Z M 72.698,61.244 C 68.529,61.896 64.24,62.541 59.976,62.775 L 61.112,31.101 C 65.273,30.83 69.324,30.259 73.268,29.68 77.749,29.024 81.985,28.404 85.686,28.404 88.567,28.404 90.841,28.769 92.712,29.554 V 33.949 L 91.768,60.448 C 90.065,60.042 88.169,59.828 85.99,59.828 81.928,59.828 77.447,60.521 72.698,61.244 Z M 140.027,42.555 V 36.532 H 136.309 V 26.238 H 133.801 C 128.482,26.238 123.2,25.467 118.087,24.715 113.418,24.034 109.009,23.381 104.939,23.381 101.105,23.381 97.945,23.985 95.315,25.22 92.684,23.985 89.515,23.381 85.687,23.381 81.616,23.381 77.208,24.034 72.542,24.715 67.429,25.467 62.138,26.238 56.824,26.238 H 54.316 V 36.531 H 50.603 V 42.554 H 54.316 V 50.708 H 50.643 V 56.733 H 54.316 V 67.904 H 56.824 C 62.509,67.904 68.077,67.042 73.466,66.209 78.017,65.512 82.318,64.843 85.991,64.843 88.946,64.843 91.174,65.273 92.894,66.168 V 66.168 H 97.732 V 66.168 C 99.456,65.272 101.68,64.843 104.639,64.843 108.312,64.843 112.609,65.512 117.16,66.209 122.548,67.042 128.125,67.904 133.802,67.904 H 136.31 V 56.734 H 139.978 V 50.709 H 136.31 V 42.555 Z"
   id="path4"
   inkscape:connector-curvature="0"
   style="fill:#bf5700" />
			<path
   d="M 73.384,34.232 C 73.133,34.265 72.891,34.306 72.641,34.338 70.282,34.687 67.885,35.04 65.464,35.315 L 65.324,39.378 C 68.004,39.087 70.631,38.692 73.224,38.311 73.278,38.302 73.331,38.294 73.384,38.287 Z"
   id="path6"
   inkscape:connector-curvature="0"
   style="fill:#bf5700" />
			<path
   d="M 76.396,33.801 V 37.856 C 80.663,37.261 84.587,36.838 87.985,37.118 L 88.128,33.122 C 84.501,32.841 80.529,33.238 76.396,33.801 Z"
   id="path8"
   inkscape:connector-curvature="0"
   style="fill:#bf5700" />
			<path
   d="M 73.384,52.61 C 73.133,52.646 72.891,52.678 72.641,52.72 70.069,53.098 67.45,53.48 64.803,53.771 L 64.655,57.826 C 67.566,57.517 70.422,57.101 73.224,56.693 73.278,56.684 73.331,56.675 73.384,56.668 Z"
   id="path10"
   inkscape:connector-curvature="0"
   style="fill:#bf5700" />
			<path
   d="M 76.396,52.183 V 56.238 C 80.393,55.684 84.082,55.27 87.325,55.45 L 87.473,51.454 C 84.021,51.271 80.282,51.653 76.396,52.183 Z"
   id="path12"
   inkscape:connector-curvature="0"
   style="fill:#bf5700" />
			<path
   d="M 72.76,43.516 V 47.578 C 72.916,47.554 73.067,47.529 73.224,47.504 78.592,46.721 83.5,45.998 87.658,46.274 L 87.798,42.285 C 83.204,42.002 78.07,42.731 72.76,43.516 Z"
   id="path14"
   inkscape:connector-curvature="0"
   style="fill:#bf5700" />
			<path
   d="M 69.748,43.946 C 68.221,44.164 66.682,44.369 65.131,44.55 L 64.988,48.605 C 66.592,48.432 68.18,48.219 69.748,48.001 Z"
   id="path16"
   inkscape:connector-curvature="0"
   style="fill:#bf5700" />
			<path
   d="M 112.4,33.567 C 108.924,33.144 105.583,32.882 102.497,33.121 L 102.641,37.117 C 105.542,36.879 108.843,37.158 112.401,37.614 V 33.567 Z"
   id="path18"
   inkscape:connector-curvature="0"
   style="fill:#bf5700" />
			<path
   d="M 125.163,35.315 C 122.742,35.041 120.345,34.687 117.98,34.338 117.118,34.215 116.265,34.088 115.412,33.973 V 38.028 C 116.068,38.119 116.729,38.213 117.407,38.311 119.991,38.693 122.626,39.087 125.311,39.378 Z"
   id="path20"
   inkscape:connector-curvature="0"
   style="fill:#bf5700" />
			<path
   d="M 111.575,42.657 C 108.513,42.308 105.575,42.116 102.825,42.284 L 102.973,46.273 C 105.566,46.105 108.454,46.314 111.574,46.695 V 42.657 Z"
   id="path22"
   inkscape:connector-curvature="0"
   style="fill:#bf5700" />
			<path
   d="M 125.491,44.55 C 122.958,44.262 120.447,43.897 117.98,43.532 116.844,43.367 115.707,43.195 114.586,43.043 V 47.099 C 115.505,47.225 116.441,47.366 117.406,47.504 120.097,47.902 122.847,48.301 125.638,48.605 Z"
   id="path24"
   inkscape:connector-curvature="0"
   style="fill:#bf5700" />
			<path
   d="M 117.599,56.717 C 120.337,57.123 123.127,57.527 125.967,57.826 L 125.828,53.771 C 123.176,53.48 120.558,53.098 117.98,52.72 117.854,52.695 117.73,52.678 117.599,52.661 Z"
   id="path26"
   inkscape:connector-curvature="0"
   style="fill:#bf5700" />
			<path
   d="M 114.587,52.232 C 110.573,51.677 106.708,51.271 103.149,51.453 L 103.297,55.449 C 106.637,55.269 110.449,55.699 114.587,56.287 Z"
   id="path28"
   inkscape:connector-curvature="0"
   style="fill:#bf5700" />
			<path
   d="M 90.09,117.049 95.315,103.983 100.539,117.049 114.587,117.985 103.769,126.998 107.228,140.636 95.315,133.13 83.409,140.636 86.86,126.998 76.047,117.985 Z M 58.265,112.412 V 112.42 L 80.968,128.918 72.218,155.812 C 72.226,155.861 72.251,155.911 72.292,155.943 72.333,155.976 72.382,155.976 72.432,155.976 L 95.316,139.334 118.191,155.968 C 118.24,155.976 118.294,155.968 118.331,155.943 118.405,155.886 118.417,155.788 118.376,155.697 L 109.671,128.911 132.37,112.421 132.362,112.413 C 132.472,112.372 132.53,112.265 132.497,112.158 132.468,112.059 132.354,112.011 132.247,112.044 V 112.035 H 104.184 L 95.517,85.351 H 95.504 C 95.504,85.237 95.427,85.137 95.316,85.137 95.209,85.137 95.122,85.237 95.122,85.351 H 95.11 L 86.447,112.035 H 58.388 L 58.38,112.052 C 58.273,112.011 58.158,112.068 58.125,112.167 58.097,112.264 58.149,112.379 58.265,112.412 Z"
   id="path30"
   inkscape:connector-curvature="0"
   style="fill:#bf5700" />
			<path
   d="M 151.649,146.139 C 149.606,148.399 146.946,149.969 144.008,150.674 144.422,147.669 145.723,144.859 147.767,142.613 149.831,140.342 152.486,138.763 155.412,138.07 154.999,141.065 153.702,143.881 151.649,146.139 Z M 140.671,128.486 C 140.281,125.45 140.811,122.407 142.169,119.705 144.172,121.965 145.461,124.769 145.858,127.807 146.265,130.827 145.735,133.871 144.372,136.564 142.362,134.311 141.07,131.5 140.671,128.486 Z M 146.75,105.514 C 146.184,102.5 146.524,99.436 147.719,96.657 149.852,98.792 151.314,101.516 151.888,104.52 152.471,107.516 152.13,110.586 150.923,113.374 148.786,111.23 147.329,108.5 146.75,105.514 Z M 161.253,112.215 C 161.461,115.244 160.773,118.256 159.233,120.895 157.694,123.53 155.424,125.615 152.695,126.916 152.481,123.892 153.167,120.88 154.706,118.241 156.254,115.592 158.523,113.516 161.253,112.215 Z M 139.018,169.271 C 136.552,171.06 133.654,172.037 130.609,172.135 131.635,169.271 133.482,166.8 135.947,165.021 138.43,163.213 141.332,162.237 144.365,162.155 143.344,165.012 141.492,167.482 139.018,169.271 Z M 131.917,149.737 C 132.164,146.675 133.313,143.819 135.201,141.455 136.699,144.07 137.38,147.082 137.138,150.129 136.908,153.174 135.763,156.053 133.867,158.413 132.37,155.787 131.684,152.783 131.917,149.737 Z M 123.993,170.191 C 123.139,173.113 121.424,175.69 119.085,177.611 118.162,174.738 118.108,171.652 118.966,168.721 119.841,165.783 121.555,163.204 123.891,161.293 124.814,164.158 124.859,167.253 123.993,170.191 Z M 128.585,183.438 C 126.988,186.015 124.67,188.058 121.875,189.298 119.934,190.168 117.882,190.611 115.765,190.611 V 190.611 C 114.858,190.611 113.95,190.529 113.056,190.365 114.653,187.788 116.971,185.753 119.762,184.505 122.548,183.258 125.623,182.906 128.585,183.438 Z M 102.378,184.629 C 103.843,181.929 106.046,179.762 108.727,178.374 109.035,181.37 108.449,184.398 106.991,187.099 105.551,189.792 103.347,191.953 100.655,193.354 100.347,190.341 100.929,187.312 102.378,184.629 Z M 68.459,189.299 C 65.668,188.059 63.345,186.016 61.749,183.439 64.712,182.907 67.782,183.258 70.576,184.506 73.363,185.754 75.681,187.789 77.278,190.366 74.311,190.916 71.237,190.547 68.459,189.299 Z M 66.341,170.183 C 65.48,167.253 65.529,164.159 66.452,161.294 68.779,163.205 70.499,165.775 71.369,168.714 72.226,171.652 72.177,174.738 71.25,177.611 68.911,175.69 67.195,173.113 66.341,170.183 Z M 81.616,178.374 C 84.288,179.762 86.496,181.929 87.961,184.612 89.406,187.312 89.997,190.341 89.68,193.353 86.992,191.953 84.784,189.791 83.344,187.098 81.896,184.398 81.3,181.37 81.616,178.374 Z M 51.321,169.271 C 48.846,167.482 47,165.011 45.969,162.155 49.006,162.237 51.907,163.214 54.382,165.021 56.856,166.8 58.703,169.271 59.729,172.135 56.685,172.037 53.787,171.061 51.321,169.271 Z M 55.137,141.455 C 57.03,143.819 58.166,146.676 58.421,149.728 58.654,152.783 57.965,155.787 56.468,158.413 54.572,156.053 53.431,153.174 53.193,150.121 52.959,147.082 53.639,144.07 55.137,141.455 Z M 38.685,146.139 C 36.645,143.881 35.34,141.066 34.926,138.071 37.852,138.764 40.512,140.343 42.568,142.614 44.616,144.859 45.913,147.67 46.327,150.675 43.388,149.969 40.729,148.398 38.685,146.139 Z M 37.647,126.915 C 34.918,125.614 32.645,123.529 31.105,120.894 29.566,118.255 28.88,115.244 29.089,112.214 31.81,113.515 34.088,115.591 35.635,118.239 37.166,120.879 37.856,123.891 37.647,126.915 Z M 38.447,104.512 C 39.026,101.508 40.487,98.791 42.621,96.657 43.815,99.436 44.155,102.501 43.59,105.506 43.011,108.501 41.554,111.232 39.412,113.374 38.205,110.586 37.864,107.516 38.447,104.512 Z M 44.476,127.798 C 44.874,124.77 46.163,121.965 48.169,119.705 49.532,122.407 50.062,125.45 49.667,128.478 49.269,131.499 47.98,134.31 45.97,136.563 44.603,133.871 44.078,130.826 44.476,127.798 Z M 151.658,131.598 C 156.331,130.191 160.26,127.113 162.702,122.913 165.144,118.72 165.899,113.779 164.823,109.006 L 164.351,106.917 162.29,107.523 C 159.922,108.234 157.752,109.375 155.855,110.88 156.295,108.541 156.295,106.132 155.826,103.765 154.911,98.98 152.236,94.76 148.292,91.888 L 146.551,90.616 145.406,92.443 C 142.821,96.558 141.897,101.474 142.805,106.263 143.724,111.015 146.379,115.21 150.29,118.091 149.563,119.729 149.071,121.444 148.833,123.204 147.671,120.027 145.693,117.18 143.029,114.979 L 141.367,113.604 140.116,115.358 C 137.284,119.313 136.061,124.165 136.689,128.999 137.317,133.813 139.742,138.192 143.501,141.311 L 143.591,141.364 C 142.483,142.87 141.613,144.508 140.993,146.253 140.513,142.903 139.171,139.715 137.012,137.001 L 135.67,135.319 134.082,136.776 C 130.499,140.063 128.309,144.548 127.91,149.416 127.536,154.259 129.005,159.036 132.038,162.86 L 132.12,162.959 C 130.721,164.182 129.534,165.618 128.562,167.186 128.792,163.806 128.131,160.398 126.583,157.303 L 125.619,155.383 123.768,156.483 C 119.573,158.971 116.499,162.911 115.112,167.581 113.746,172.251 114.193,177.217 116.385,181.592 L 116.429,181.698 C 114.812,182.618 113.356,183.767 112.083,185.103 113.002,181.846 113.06,178.374 112.182,175.033 L 111.636,172.957 109.593,173.639 C 104.984,175.198 101.167,178.423 98.841,182.717 96.612,186.863 96.005,191.647 97.092,196.218 96.481,196.646 95.836,197.079 95.163,197.539 94.488,197.079 93.851,196.645 93.234,196.218 94.322,191.647 93.718,186.863 91.486,182.709 89.158,178.423 85.342,175.197 80.733,173.639 L 78.693,172.957 78.147,175.033 C 77.269,178.374 77.326,181.846 78.246,185.103 76.974,183.767 75.517,182.618 73.896,181.698 L 73.95,181.592 C 76.133,177.217 76.58,172.251 75.214,167.581 73.827,162.911 70.753,158.972 66.563,156.483 L 64.711,155.383 63.747,157.303 C 62.192,160.398 61.544,163.806 61.769,167.186 60.792,165.611 59.602,164.182 58.211,162.959 L 58.285,162.86 C 61.33,159.036 62.795,154.258 62.414,149.407 62.024,144.549 59.832,140.063 56.241,136.776 L 54.653,135.319 53.32,137.001 C 51.161,139.715 49.815,142.903 49.339,146.253 48.715,144.508 47.845,142.87 46.737,141.364 L 46.828,141.311 C 50.596,138.192 53.017,133.813 53.644,128.999 54.268,124.165 53.054,119.313 50.218,115.358 L 48.967,113.604 47.309,114.979 C 44.638,117.179 42.659,120.027 41.506,123.211 41.264,121.442 40.776,119.728 40.045,118.09 43.956,115.209 46.616,111.014 47.531,106.262 48.438,101.467 47.514,96.557 44.925,92.442 L 43.78,90.615 42.044,91.887 C 38.1,94.759 35.42,98.979 34.501,103.755 34.045,106.131 34.037,108.54 34.476,110.879 32.584,109.373 30.409,108.233 28.041,107.522 L 25.98,106.916 25.508,109.005 C 24.433,113.778 25.193,118.719 27.634,122.912 30.075,127.111 33.995,130.189 38.673,131.597 L 40.491,132.143 C 40.675,133.665 41.061,135.171 41.611,136.621 39.018,134.959 36.054,133.949 32.927,133.699 L 30.788,133.518 30.755,135.677 C 30.69,140.56 32.451,145.226 35.701,148.825 38.96,152.429 43.437,154.637 48.304,155.048 L 50.192,155.202 C 50.689,156.663 51.374,158.056 52.211,159.339 50.098,158.552 47.857,158.133 45.555,158.133 44.738,158.133 43.921,158.182 43.117,158.28 L 40.983,158.559 41.398,160.661 C 42.346,165.462 45.03,169.673 48.961,172.529 52.228,174.91 56.11,176.156 60.172,176.156 60.973,176.156 61.777,176.106 62.569,176.007 L 64.448,175.772 C 65.244,177.093 66.192,178.308 67.288,179.409 64.239,178.957 61.107,179.219 58.161,180.245 L 56.126,180.961 56.976,182.939 C 58.888,187.428 62.389,190.99 66.817,192.969 69.279,194.068 71.886,194.626 74.565,194.626 76.708,194.626 78.825,194.264 80.857,193.567 L 82.355,193.041 C 84.863,195.168 87.686,197.285 91.56,199.943 89.796,201.109 87.834,202.39 85.643,203.794 L 89.423,206.133 C 91.552,204.764 93.444,203.524 95.164,202.374 96.889,203.523 98.776,204.764 100.91,206.133 L 104.685,203.794 C 102.493,202.391 100.536,201.109 98.771,199.943 102.641,197.285 105.464,195.168 107.972,193.041 L 109.47,193.567 C 111.505,194.263 113.623,194.626 115.762,194.626 V 194.626 C 118.441,194.626 121.048,194.067 123.51,192.976 127.946,190.99 131.443,187.428 133.36,182.939 L 134.197,180.961 132.17,180.245 C 129.223,179.219 126.088,178.957 123.043,179.417 124.135,178.316 125.087,177.094 125.883,175.772 L 127.762,176.007 C 128.554,176.107 129.363,176.156 130.159,176.156 V 176.156 C 134.221,176.156 138.096,174.91 141.367,172.529 145.303,169.673 147.987,165.462 148.93,160.661 L 149.344,158.559 147.215,158.28 C 146.406,158.181 145.586,158.133 144.777,158.133 142.475,158.133 140.234,158.552 138.12,159.339 138.957,158.056 139.635,156.663 140.139,155.202 L 142.022,155.048 C 146.893,154.637 151.367,152.429 154.622,148.825 157.88,145.225 159.637,140.559 159.571,135.677 L 159.546,133.518 157.396,133.699 C 154.282,133.949 151.315,134.959 148.721,136.621 149.275,135.172 149.652,133.666 149.84,132.143 Z"
   id="path32"
   inkscape:connector-curvature="0"
   style="fill:#bf5700" />
			<path
   d="M 152.175,174.032 C 148.083,180.015 143.4,185.572 137.758,190.974 120.353,206.96 100.802,215.802 95.295,218.091 89.787,215.802 70.24,206.96 52.827,190.974 47.184,185.572 42.506,180.015 38.414,174.032 18.642,145.079 16.044,111.505 16.027,85.416 H 16.051 L 95.315,81.014 174.562,85.409 C 174.542,111.496 171.947,145.079 152.175,174.032 Z M 20.254,18.043 C 34.992,16.404 68.118,13.109 95.316,13.109 122.504,13.109 155.635,16.404 170.368,18.043 L 174.493,76.1 H 95.315 16.134 Z M 182.597,11.324 179.084,10.885 C 178.617,10.828 131.803,5 95.34,5 95.332,5 95.324,5 95.316,5 95.308,5 95.295,5 95.287,5 58.827,5 12.014,10.828 11.55,10.885 L 8.033,11.324 V 76.1 H 8 V 85.137 C 8,112.429 10.705,147.694 31.786,178.572 36.133,184.933 41.07,190.802 46.983,196.507 L 46.979,196.515 C 47.02,196.548 47.057,196.58 47.098,196.614 58.536,207.621 73.65,217.995 95.274,230.045 V 230.077 C 95.282,230.06 95.286,230.06 95.295,230.06 95.304,230.06 95.307,230.06 95.316,230.077 V 230.045 C 116.934,217.995 132.054,207.621 143.491,196.614 143.532,196.581 143.569,196.549 143.606,196.515 V 196.507 C 149.52,190.803 154.452,184.934 158.808,178.572 179.885,147.694 182.594,112.429 182.594,85.137 V 83.854 H 182.598 V 11.324 Z"
   id="path34"
   inkscape:connector-curvature="0"
   style="fill:#bf5700" />
		</g>
</svg>